<svg width="110" height="110" viewBox="0 0 110 110" fill="none" xmlns="http://www.w3.org/2000/svg">
<g filter="url(#filter0_d_559_15711)">
<circle cx="55" cy="35" r="30" fill="white"/>
</g>
<mask id="mask0_559_15711" style="mask-type:alpha" maskUnits="userSpaceOnUse" x="30" y="10" width="50" height="50">
<circle cx="55" cy="35" r="25" fill="#C4C4C4"/>
</mask>
<g mask="url(#mask0_559_15711)">
<mask id="mask1_559_15711" style="mask-type:alpha" maskUnits="userSpaceOnUse" x="30" y="10" width="50" height="50">
<circle cx="55" cy="35" r="25" fill="#C4C4C4"/>
</mask>
<g mask="url(#mask1_559_15711)">
<g clip-path="url(#clip0_559_15711)">
<path d="M54.6094 88.0022C79.3382 88.0022 99.3848 67.9339 99.3848 43.1784C99.3848 18.4228 79.3382 -1.64551 54.6094 -1.64551C29.8805 -1.64551 9.83386 18.4228 9.83386 43.1784C9.83386 67.9339 29.8805 88.0022 54.6094 88.0022Z" fill="white"/>
<path d="M59.4401 21.3984C59.4401 21.3984 56.3112 16.0496 49.5409 17.6432C42.2948 19.3468 43.9965 27.1502 45.3689 29.0186C52.743 39.1301 49.8702 35.8878 54.646 35.4848C60.5563 34.9903 58.1044 35.5398 60.6844 31.6015C63.0815 27.9379 63.7768 21.8563 59.4401 21.3984Z" fill="#20120C"/>
<path d="M58.8546 29.8797C58.8546 29.8797 58.9278 22.9372 51.3158 21.9297C46.1374 21.2337 44.5272 26.0879 44.4174 32.6274C44.3076 39.1669 46.2472 43.4533 50.6936 42.4824C55.3779 41.4383 58.1593 39.2585 59.2571 35.7414C59.2571 35.7414 62.8619 35.3751 62.5691 31.4917C62.2214 27.187 58.8546 29.8797 58.8546 29.8797Z" fill="#E5AF9C"/>
<path d="M48.3148 48.8936C48.3148 48.8936 50.3642 48.0143 50.3825 41.1634L59.9158 34.2576C59.9158 34.2576 60.1354 46.3657 62.6239 48.0143C62.6239 48.0143 61.3614 61.423 53.9323 61.771C49.4127 61.9725 48.7174 52.2274 48.3148 48.8936Z" fill="#E5AF9C"/>
<path d="M49.3396 29.4033C49.3396 29.4033 48.1502 32.0411 47.4183 33.0669C46.7412 34.0011 47.8208 34.6239 49.5409 34.1843C50.2179 34.0194 49.3396 29.4033 49.3396 29.4033Z" fill="#D39784"/>
<path d="M48.3148 48.8937C48.3148 48.8937 52.0843 56.3124 53.3651 56.3674C54.5362 56.4223 59.7329 51.6963 62.6057 48.0144C62.6057 48.0144 90.7848 51.0552 99.3666 73.2931C99.3666 73.2931 59.312 109.013 18.8915 74.612C18.9098 74.6303 28.0954 52.9236 48.3148 48.8937Z" fill="#F8B001"/>
<path d="M45.8995 30.4657C46.3542 30.4657 46.7229 30.0967 46.7229 29.6414C46.7229 29.1862 46.3542 28.8171 45.8995 28.8171C45.4447 28.8171 45.076 29.1862 45.076 29.6414C45.076 30.0967 45.4447 30.4657 45.8995 30.4657Z" fill="#20120C"/>
<path d="M53.0906 30.4657C53.5454 30.4657 53.914 30.0967 53.914 29.6414C53.914 29.1862 53.5454 28.8171 53.0906 28.8171C52.6359 28.8171 52.2672 29.1862 52.2672 29.6414C52.2672 30.0967 52.6359 30.4657 53.0906 30.4657Z" fill="#20120C"/>
<path d="M54.6459 26.3992C54.0421 26.3076 53.4383 26.271 52.8344 26.271C52.3953 26.271 52.0659 26.7656 52.1025 27.1869C52.1574 27.6632 52.56 27.9196 53.0174 27.9196C53.4749 27.9196 53.9323 27.9562 54.3715 28.0295C55.4328 28.1761 55.7072 26.5641 54.6459 26.3992Z" fill="#20120C"/>
<path d="M45.9361 26.106C45.7166 26.0877 45.497 26.0877 45.2774 26.106C45.0578 26.6556 44.948 27.2417 44.8199 27.8279C44.8565 27.8279 44.8931 27.8279 44.9297 27.8096C45.0029 27.7913 45.0944 27.773 45.1676 27.7546C45.2042 27.7546 45.2408 27.7363 45.2774 27.7363C45.2774 27.7363 45.2957 27.7363 45.314 27.7363C45.497 27.7363 45.68 27.7363 45.8629 27.7363C46.2838 27.7546 46.723 27.37 46.723 26.9486C46.723 26.509 46.3936 26.1427 45.9361 26.106Z" fill="#20120C"/>
<path d="M57.9763 25.1536C57.9763 25.1536 57.9763 33.2318 56.055 34.4041C54.1337 35.5948 44.454 34.7521 44.454 34.7521C44.454 34.7521 44.1063 39.8628 45.7531 41.5298C47.4183 43.1967 52.0843 43.9477 54.646 42.2075C57.2078 40.4673 59.1291 39.1301 59.3852 29.5132C59.3852 29.5315 59.8244 25.6115 57.9763 25.1536Z" fill="#20120C"/>
<path d="M47.1438 37.3715L51.1511 36.9502C51.1511 36.9502 51.2609 38.5438 49.3396 38.727C47.4732 38.9102 47.1438 37.3715 47.1438 37.3715Z" fill="white"/>
</g>
</g>
</g>
<defs>
<filter id="filter0_d_559_15711" x="0" y="0" width="110" height="110" filterUnits="userSpaceOnUse" color-interpolation-filters="sRGB">
<feFlood flood-opacity="0" result="BackgroundImageFix"/>
<feColorMatrix in="SourceAlpha" type="matrix" values="0 0 0 0 0 0 0 0 0 0 0 0 0 0 0 0 0 0 127 0" result="hardAlpha"/>
<feMorphology radius="15" operator="erode" in="SourceAlpha" result="effect1_dropShadow_559_15711"/>
<feOffset dy="20"/>
<feGaussianBlur stdDeviation="20"/>
<feComposite in2="hardAlpha" operator="out"/>
<feColorMatrix type="matrix" values="0 0 0 0 0.466667 0 0 0 0 0.478431 0 0 0 0 0.564706 0 0 0 0.5 0"/>
<feBlend mode="normal" in2="BackgroundImageFix" result="effect1_dropShadow_559_15711"/>
<feBlend mode="normal" in="SourceGraphic" in2="effect1_dropShadow_559_15711" result="shape"/>
</filter>
<clipPath id="clip0_559_15711">
<rect width="89.8438" height="91.4062" fill="white" transform="translate(9.6875 -1.71875)"/>
</clipPath>
</defs>
</svg>
