<svg width="110" height="110" viewBox="0 0 110 110" fill="none" xmlns="http://www.w3.org/2000/svg">
<g filter="url(#filter0_d_559_15802)">
<circle cx="55" cy="35" r="30" fill="white"/>
</g>
<mask id="mask0_559_15802" style="mask-type:alpha" maskUnits="userSpaceOnUse" x="30" y="10" width="50" height="50">
<circle cx="55" cy="35" r="25" fill="#C4C4C4"/>
</mask>
<g mask="url(#mask0_559_15802)">
<mask id="mask1_559_15802" style="mask-type:alpha" maskUnits="userSpaceOnUse" x="30" y="10" width="50" height="50">
<circle cx="55" cy="35" r="25" fill="#C4C4C4"/>
</mask>
<g mask="url(#mask1_559_15802)">
<g clip-path="url(#clip0_559_15802)">
<path d="M55.5208 74.6269C35.7377 74.6269 19.7004 58.5504 19.7004 38.719C19.7004 18.8876 35.7377 2.81104 55.5208 2.81104C75.3039 2.81104 91.3412 18.8876 91.3412 38.719C91.3412 58.5504 75.3039 74.6269 55.5208 74.6269Z" fill="white"/>
<path d="M49.9582 20.4496C49.9582 20.4496 52.3735 15.2402 58.9462 16.737C68.754 18.9528 66.1923 23.5899 63.367 27.4639C57.4531 35.5494 59.6196 36.5913 55.7843 36.3565C51.0414 36.0777 50.3241 36.5033 47.0451 29.4449C45.1421 25.3802 43.6343 20.7137 49.9582 20.4496Z" fill="#20120C"/>
<path d="M51.8611 28.6672C51.8611 28.6672 52.2271 22.2839 57.497 21.4475C61.625 20.7871 63.2206 25.5269 63.4548 30.7656C63.6744 36.0044 62.2106 39.4822 58.6388 38.7778C54.8767 38.0441 52.476 36.1951 51.5245 33.407C51.5245 33.407 48.7724 33.3336 48.9188 30.2227C49.0652 26.921 51.8611 28.6672 51.8611 28.6672Z" fill="#E5AF9C"/>
<path d="M61.6104 44.4861C61.6104 44.4861 58.302 43.3709 58.8583 37.7359L51.0999 32.4092C51.0999 32.4092 51.9343 43.1508 48.0405 44.2073C48.0405 44.2073 50.4997 54.1858 56.443 54.3179C60.044 54.3912 61.3615 47.1715 61.6104 44.4861Z" fill="#E5AF9C"/>
<path d="M59.7367 28.1829C59.7367 28.1829 60.6297 30.3693 61.3323 30.9563C62.035 31.5433 60.9663 32.5558 59.5757 32.233C59.0194 32.1156 59.7367 28.1829 59.7367 28.1829Z" fill="#D39784"/>
<path d="M58.7998 38.8219C58.7998 38.8219 55.228 37.7653 53.1201 36.0338C52.0807 35.1827 52.8127 37.6333 54.4375 39.4382C55.3744 40.4801 57.863 41.9328 59.3707 42.0649C59.3561 42.0649 58.8145 41.0524 58.7998 38.8219Z" fill="#D39784"/>
<path d="M61.6104 44.4861C61.6104 44.4861 59.4732 46.335 56.2381 46.3497C54.8621 46.3497 50.2363 46.247 48.0259 44.2073C48.0259 44.2073 26.7269 46.4818 20.3152 64.4578C20.3152 64.4578 53.0615 92.2508 84.6953 63.8855C84.6953 63.9001 77.8591 47.3035 61.6104 44.4861Z" fill="#477849"/>
<path d="M61.5372 28.4324C61.5518 28.7993 61.8446 29.0781 62.2106 29.0634C62.5765 29.0487 62.8547 28.7552 62.84 28.3884C62.8254 28.0215 62.5326 27.7427 62.1667 27.7574C61.8153 27.7721 61.5372 28.0656 61.5372 28.4324Z" fill="#20120C"/>
<path d="M55.9453 28.5205C55.9599 28.8874 56.2527 29.1662 56.6186 29.1515C56.9846 29.1369 57.2627 28.8434 57.2481 28.4765C57.2335 28.1097 56.9407 27.8309 56.5747 27.8455C56.2234 27.8602 55.9453 28.1684 55.9453 28.5205Z" fill="#20120C"/>
<path d="M55.2866 25.5122C55.7697 25.4535 56.2528 25.4389 56.7358 25.4535C57.0872 25.4682 57.336 25.8644 57.2921 26.2019C57.2335 26.5835 56.9115 26.7742 56.5455 26.7595C56.1796 26.7449 55.8136 26.7742 55.4476 26.8182C54.6133 26.921 54.4376 25.615 55.2866 25.5122Z" fill="#20120C"/>
<path d="M61.6983 25.2188C62.0642 25.1894 62.4448 25.2041 62.7962 25.2775C63.1328 25.3362 63.3963 25.7177 63.3085 26.0552C63.2207 26.4074 62.884 26.6275 62.5327 26.5688C62.4741 26.5541 62.4009 26.5394 62.3424 26.5394C62.3131 26.5394 62.2838 26.5394 62.2545 26.5248C62.2545 26.5248 62.2399 26.5248 62.2253 26.5248C62.0789 26.5248 61.9325 26.5248 61.7861 26.5394C61.4494 26.5688 61.0981 26.2753 61.0835 25.9231C61.0835 25.5563 61.3323 25.2481 61.6983 25.2188Z" fill="#20120C"/>
<path d="M61.3909 33.9207L58.1704 33.7739C58.1704 33.7739 58.1558 35.0506 59.7074 35.1093C61.1859 35.168 61.3909 33.9207 61.3909 33.9207Z" fill="white"/>
<path d="M51.8612 28.6672L51.9197 28.2269L54.4961 28.5644C54.5986 27.3905 55.5647 26.4513 56.7651 26.422C57.9215 26.3926 58.9023 27.2144 59.1072 28.315C59.5464 28.0655 59.9709 28.1389 60.2783 28.2856C60.4393 27.1851 61.3762 26.3193 62.5326 26.2899C63.8208 26.2606 64.8894 27.2878 64.9333 28.5791C64.9626 29.8558 63.9379 30.927 62.6497 30.9563C61.3908 30.9857 60.3515 30.0172 60.2637 28.7699C60.1026 28.6378 59.6489 28.3883 59.1511 28.7992C59.1219 30.0465 58.1265 31.0591 56.8822 31.0884C55.6525 31.1178 54.6279 30.1933 54.4961 28.99L51.8612 28.6672ZM62.6351 30.5161C63.5573 30.4868 64.3039 29.8117 64.4503 28.946L63.2792 28.7845L63.2206 28.3296L64.4649 28.5057C64.4064 27.4932 63.5427 26.6861 62.518 26.7155C61.4787 26.7448 60.6443 27.6106 60.6735 28.6672C60.7175 29.709 61.5958 30.5455 62.6351 30.5161ZM56.8675 30.6629C57.9069 30.6335 58.7413 29.7677 58.712 28.7112C58.6827 27.6546 57.819 26.8329 56.7651 26.8622C55.7257 26.8916 54.8913 27.7573 54.9206 28.8139C54.9499 29.8558 55.8282 30.6922 56.8675 30.6629Z" fill="white"/>
<path d="M61.6104 44.4861L58.2728 49.9449L55.6525 46.335L51.9636 50.1063L48.0258 44.2073C48.0258 44.2073 54.5253 48.7856 61.6104 44.4861Z" fill="white"/>
</g>
</g>
</g>
<defs>
<filter id="filter0_d_559_15802" x="0" y="0" width="110" height="110" filterUnits="userSpaceOnUse" color-interpolation-filters="sRGB">
<feFlood flood-opacity="0" result="BackgroundImageFix"/>
<feColorMatrix in="SourceAlpha" type="matrix" values="0 0 0 0 0 0 0 0 0 0 0 0 0 0 0 0 0 0 127 0" result="hardAlpha"/>
<feMorphology radius="15" operator="erode" in="SourceAlpha" result="effect1_dropShadow_559_15802"/>
<feOffset dy="20"/>
<feGaussianBlur stdDeviation="20"/>
<feComposite in2="hardAlpha" operator="out"/>
<feColorMatrix type="matrix" values="0 0 0 0 0.466667 0 0 0 0 0.478431 0 0 0 0 0.564706 0 0 0 0.5 0"/>
<feBlend mode="normal" in2="BackgroundImageFix" result="effect1_dropShadow_559_15802"/>
<feBlend mode="normal" in="SourceGraphic" in2="effect1_dropShadow_559_15802" result="shape"/>
</filter>
<clipPath id="clip0_559_15802">
<rect width="71.875" height="73.9583" fill="white" transform="matrix(-1 0 0 1 91.4583 2.70825)"/>
</clipPath>
</defs>
</svg>
