<svg width="110" height="110" viewBox="0 0 110 110" fill="none" xmlns="http://www.w3.org/2000/svg">
<g filter="url(#filter0_d_559_14809)">
<circle cx="55" cy="35" r="30" fill="white"/>
</g>
<mask id="mask0_559_14809" style="mask-type:alpha" maskUnits="userSpaceOnUse" x="30" y="10" width="50" height="50">
<circle cx="55" cy="35" r="25" fill="#C4C4C4"/>
</mask>
<g mask="url(#mask0_559_14809)">
<mask id="mask1_559_14809" style="mask-type:alpha" maskUnits="userSpaceOnUse" x="30" y="10" width="50" height="50">
<circle cx="55" cy="35" r="25" fill="#C4C4C4"/>
</mask>
<g mask="url(#mask1_559_14809)">
<g clip-path="url(#clip0_559_14809)">
<path d="M58.2396 73.6874C76.908 73.6874 92.0417 58.5537 92.0417 39.8853C92.0417 21.217 76.908 6.08325 58.2396 6.08325C39.5712 6.08325 24.4375 21.217 24.4375 39.8853C24.4375 58.5537 39.5712 73.6874 58.2396 73.6874Z" fill="white"/>
<path d="M57.3229 21.8042C57.3229 21.8042 60.0041 25.2417 63.9916 25.5396C67.9791 25.8604 79.1166 27.9 87.6416 35.9667C96.052 43.9188 93.5083 52.0084 92.0416 54.3229C84.5479 66.1938 65 60.8313 54.9625 46.1646C44.9479 31.4979 57.3229 21.8042 57.3229 21.8042Z" fill="#20120C"/>
<path d="M57.2771 22.5145C55.6958 21.6437 52.2354 21.1395 50.2187 21.3687C46.6208 21.8041 42.6562 23.9124 43.9395 30.7416C45.75 40.3666 55.1 38.4187 58.5375 34.8208C61.3791 31.9103 61.7916 24.9666 57.2771 22.5145Z" fill="#20120C"/>
<path d="M51.0208 19.5813C51.3416 21.9646 52.7395 23.7292 55.1229 23.4084C58.4 22.95 60.5312 20.3146 60.2104 17.9313C59.8896 15.5479 58.0333 13.4625 54.6187 13.9209C52.2354 14.2417 50.5166 15.8917 51.0208 19.5813Z" fill="#20120C"/>
<path d="M55.0542 30.4894C55.0542 30.4894 53.9542 24.0728 48.5688 24.0728C44.4896 24.0728 43.573 28.7936 44.0542 33.904C44.5584 38.9915 46.4375 42.154 49.8063 41.0082C53.3584 39.7936 55.3292 37.8228 55.8563 35.004C55.8563 35.004 58.6292 34.4082 58.0563 31.4061C57.4375 28.1061 55.0542 30.4894 55.0542 30.4894Z" fill="#9C6639"/>
<path d="M49.8292 46.0271C49.8292 46.0271 51.273 43.9875 50.5396 40.2979L55.5584 34.3167C55.5584 34.3167 56.4751 43.3687 59.4542 44.7896C59.4542 44.7896 57.6667 51.8021 54.1834 52.4208C50.7001 53.0396 50.448 48.5937 49.8292 46.0271Z" fill="#9C6639"/>
<path d="M47.2625 31.4978C47.2625 31.4978 46.575 33.2166 45.9104 33.8124C45.2459 34.4082 46.575 34.9124 47.125 34.9582C47.675 35.0041 47.2625 31.4978 47.2625 31.4978Z" fill="#89532E"/>
<path d="M55.1459 34.477C55.2375 34.9811 55.7188 35.302 56.2229 35.2103C56.7271 35.1186 57.0479 34.6374 56.9563 34.1332C56.8646 33.6291 56.3834 33.3082 55.8792 33.3999C55.375 33.5145 55.0542 33.9957 55.1459 34.477Z" fill="white"/>
<path d="M50.6083 40.5499C50.6083 40.5499 52.9687 39.1749 53.7479 38.1207C54.527 37.0666 54.0458 40.4124 53.7249 41.0999C53.1291 42.2686 51.9145 43.1853 50.6083 43.827C50.6083 43.827 50.9062 42.3603 50.6083 40.5499Z" fill="#89532E"/>
<path d="M30.6479 60.5104C32.5729 55.5833 43.7563 48.2729 49.8063 46.0271C49.8063 46.0271 50.1729 49.3271 52.3729 49.35C55.1 49.3958 58.0104 47.4021 59.4313 44.7896C59.4313 44.7896 73.5479 46.0729 86.8625 61.2896C86.8625 61.2896 78.4979 73.6187 68.5063 75.2916C33.5584 81.0896 30.6479 60.5104 30.6479 60.5104Z" fill="#FDDDDF"/>
<path d="M44.8334 31.8874C45.1751 31.8874 45.4521 31.6104 45.4521 31.2686C45.4521 30.9269 45.1751 30.6499 44.8334 30.6499C44.4916 30.6499 44.2146 30.9269 44.2146 31.2686C44.2146 31.6104 44.4916 31.8874 44.8334 31.8874Z" fill="#20120C"/>
<path d="M50.1042 31.8415C50.4459 31.8415 50.723 31.5645 50.723 31.2227C50.723 30.881 50.4459 30.604 50.1042 30.604C49.7625 30.604 49.4855 30.881 49.4855 31.2227C49.4855 31.5645 49.7625 31.8415 50.1042 31.8415Z" fill="#20120C"/>
<path d="M51.273 28.3812C50.8146 28.3354 50.3563 28.3354 49.898 28.3583C49.5542 28.3812 49.325 28.7708 49.3938 29.0687C49.4625 29.4354 49.7834 29.5958 50.1042 29.5729C50.448 29.55 50.7917 29.5729 51.1355 29.5958C51.9375 29.6875 52.075 28.45 51.273 28.3812Z" fill="#20120C"/>
<path d="M45.223 28.2436C44.8792 28.2207 44.5125 28.2436 44.1917 28.3353C43.8709 28.404 43.6417 28.7707 43.7334 29.0915C43.825 29.4124 44.1459 29.6186 44.4896 29.5499C44.5584 29.527 44.6042 29.5269 44.673 29.504C44.6959 29.504 44.7417 29.504 44.7646 29.4811H44.7875C44.925 29.4811 45.0625 29.4811 45.2 29.4811C45.5209 29.504 45.8417 29.2061 45.8417 28.8853C45.8188 28.5415 45.5667 28.2665 45.223 28.2436Z" fill="#20120C"/>
<path d="M45.7271 36.3103L49.1646 35.9666C49.1646 35.9666 49.2104 37.9603 47.5604 38.0978C45.9562 38.2582 45.7271 36.3103 45.7271 36.3103Z" fill="white"/>
</g>
</g>
</g>
<defs>
<filter id="filter0_d_559_14809" x="0" y="0" width="110" height="110" filterUnits="userSpaceOnUse" color-interpolation-filters="sRGB">
<feFlood flood-opacity="0" result="BackgroundImageFix"/>
<feColorMatrix in="SourceAlpha" type="matrix" values="0 0 0 0 0 0 0 0 0 0 0 0 0 0 0 0 0 0 127 0" result="hardAlpha"/>
<feMorphology radius="15" operator="erode" in="SourceAlpha" result="effect1_dropShadow_559_14809"/>
<feOffset dy="20"/>
<feGaussianBlur stdDeviation="20"/>
<feComposite in2="hardAlpha" operator="out"/>
<feColorMatrix type="matrix" values="0 0 0 0 0.466667 0 0 0 0 0.478431 0 0 0 0 0.564706 0 0 0 0.5 0"/>
<feBlend mode="normal" in2="BackgroundImageFix" result="effect1_dropShadow_559_14809"/>
<feBlend mode="normal" in="SourceGraphic" in2="effect1_dropShadow_559_14809" result="shape"/>
</filter>
<clipPath id="clip0_559_14809">
<rect width="68.75" height="68.75" fill="white" transform="translate(23.75 5.625)"/>
</clipPath>
</defs>
</svg>
