<svg width="110" height="110" viewBox="0 0 110 110" fill="none" xmlns="http://www.w3.org/2000/svg">
<g filter="url(#filter0_d_559_3527)">
<circle cx="55" cy="35" r="30" fill="white"/>
</g>
<mask id="mask0_559_3527" style="mask-type:alpha" maskUnits="userSpaceOnUse" x="30" y="10" width="50" height="50">
<circle cx="55" cy="35" r="25" fill="#C4C4C4"/>
</mask>
<g mask="url(#mask0_559_3527)">
<g clip-path="url(#clip0_559_3527)">
<path d="M46.4136 19.3127C46.4136 19.3127 50.0266 14.8135 56.2006 16.3875C65.4338 18.7276 63.4681 26.1519 60.1596 29.3139C53.2935 35.8606 61.9315 41.2513 61.004 48.0487C59.6336 58.1475 50.9541 58.7603 47.3411 58.3982C42.8421 57.9385 30.7711 55.278 31.1587 44.1764C31.311 39.9001 37.0696 35.4706 38.4401 29.0492C39.2707 25.1212 40.4196 19.4102 46.4136 19.3127Z" fill="#20120C"/>
<path d="M49.2376 30.3726C49.2376 30.3726 49.5836 24.0626 54.747 23.4637C58.6646 23.0179 60.0627 27.4753 60.1458 32.4481C60.2427 37.4347 58.7753 40.6942 55.4115 39.942C51.8677 39.162 49.7636 37.4904 48.933 34.816C48.933 34.816 46.206 34.5374 46.4274 31.5844C46.6766 28.325 49.2376 30.3726 49.2376 30.3726Z" fill="#E5AF9C"/>
<path d="M58.097 45.416C58.097 45.416 53.9995 44.6638 54.6502 39.3429L49.1822 34.1194C49.1822 34.1194 48.9746 43.9117 45.2647 44.831C45.2647 44.831 47.3549 54.3586 52.9752 54.6233C56.3805 54.7765 57.7925 47.9651 58.097 45.416Z" fill="#E5AF9C"/>
<path d="M56.8096 30.3447C56.8096 30.3447 57.4879 32.0162 58.1524 32.5873C58.803 33.1584 57.5156 33.6599 56.9896 33.7156C56.4497 33.7574 56.8096 30.3447 56.8096 30.3447Z" fill="#D39784"/>
<path d="M54.6225 39.747C54.6225 39.747 52.2138 38.6744 51.3417 37.7411C50.4696 36.8079 51.3417 39.9559 51.7016 40.6106C52.3522 41.7667 53.6673 42.7975 55.0931 42.9646C55.0793 42.9646 54.401 41.5995 54.6225 39.747Z" fill="#D39784"/>
<path d="M58.097 45.4161C58.097 45.4161 55.6191 53.0493 53.6673 53.0633C52.366 53.0772 47.3134 46.809 45.2508 44.8311C45.2508 44.8311 27.9886 46.5722 18.5755 63.3848C18.5755 63.3848 45.5415 93.3746 76.1205 67.2154C76.1205 67.2154 72.7013 51.6982 58.097 45.4161Z" fill="#C5E3FF"/>
<path d="M59.0245 30.8183C58.6805 30.8183 58.4016 30.5377 58.4016 30.1915C58.4016 29.8453 58.6805 29.5647 59.0245 29.5647C59.3686 29.5647 59.6475 29.8453 59.6475 30.1915C59.6475 30.5377 59.3686 30.8183 59.0245 30.8183Z" fill="#20120C"/>
<path d="M53.1277 30.2322C53.0732 29.8904 53.3044 29.5689 53.6441 29.514C53.9838 29.4592 54.3034 29.6918 54.3579 30.0337C54.4124 30.3755 54.1812 30.697 53.8415 30.7519C53.5018 30.8067 53.1822 30.5741 53.1277 30.2322Z" fill="#20120C"/>
<path d="M52.5598 27.2663C53.0167 27.2245 53.4735 27.2245 53.9303 27.2523C54.2625 27.2802 54.4978 27.6563 54.4425 27.9766C54.3871 28.3388 54.0687 28.5199 53.7226 28.492C53.3766 28.4642 53.0305 28.4781 52.6844 28.5199C51.8954 28.5895 51.7708 27.3498 52.5598 27.2663Z" fill="#20120C"/>
<path d="M58.6369 27.1408C58.9829 27.1129 59.3428 27.1547 59.6751 27.2244C59.9935 27.294 60.2288 27.6562 60.1319 27.9766C60.035 28.3109 59.7166 28.5059 59.3844 28.4362C59.329 28.4223 59.2598 28.4084 59.2044 28.3944C59.1767 28.3944 59.149 28.3805 59.1214 28.3805C59.1214 28.3805 59.1075 28.3805 59.0937 28.3805C58.9552 28.3805 58.8168 28.3805 58.6784 28.3805C58.36 28.3944 58.0278 28.1019 58.0278 27.7816C58.0416 27.4473 58.2908 27.1687 58.6369 27.1408Z" fill="#20120C"/>
<path d="M58.1385 35.3872L55.0931 35.1782C55.0931 35.1782 55.0516 36.3901 56.5189 36.4876C57.9171 36.5711 58.1385 35.3872 58.1385 35.3872Z" fill="white"/>
</g>
</g>
<defs>
<filter id="filter0_d_559_3527" x="0" y="0" width="110" height="110" filterUnits="userSpaceOnUse" color-interpolation-filters="sRGB">
<feFlood flood-opacity="0" result="BackgroundImageFix"/>
<feColorMatrix in="SourceAlpha" type="matrix" values="0 0 0 0 0 0 0 0 0 0 0 0 0 0 0 0 0 0 127 0" result="hardAlpha"/>
<feMorphology radius="15" operator="erode" in="SourceAlpha" result="effect1_dropShadow_559_3527"/>
<feOffset dy="20"/>
<feGaussianBlur stdDeviation="20"/>
<feComposite in2="hardAlpha" operator="out"/>
<feColorMatrix type="matrix" values="0 0 0 0 0.466667 0 0 0 0 0.478431 0 0 0 0 0.564706 0 0 0 0.5 0"/>
<feBlend mode="normal" in2="BackgroundImageFix" result="effect1_dropShadow_559_3527"/>
<feBlend mode="normal" in="SourceGraphic" in2="effect1_dropShadow_559_3527" result="shape"/>
</filter>
<clipPath id="clip0_559_3527">
<rect width="67.9688" height="71.875" fill="white" transform="matrix(-1 0 0 1 83.125 6.09375)"/>
</clipPath>
</defs>
</svg>
