<svg width="44" height="44" viewBox="0 0 44 44" fill="none" xmlns="http://www.w3.org/2000/svg">
<path d="M43.7977 20.7511C43.8445 17.2632 41.9169 13.0197 41.9169 13.0197C41.9169 13.0197 41.4232 11.7872 40.7999 11.1362C40.1767 10.4852 38.8475 9.76276 38.8475 9.76276C38.8475 9.76276 38.9984 9.48066 38.9984 8.87627C38.9984 8.27188 38.3349 7.59271 38.1664 7.41999C37.998 7.24727 35.545 4.56714 32.5236 3.02073C29.5027 1.47432 26.446 0.393066 22.0376 0.393066H22.0181C17.6097 0.393066 14.5532 1.47432 11.5318 3.02073C8.51034 4.56714 6.05826 7.24727 5.88954 7.41999C5.72082 7.59271 5.05722 8.27188 5.05722 8.87627C5.05722 9.48066 5.20873 9.76276 5.20873 9.76276C5.20873 9.76276 3.87929 10.4852 3.25632 11.1362C2.63335 11.7872 2.13961 13.0197 2.13961 13.0197C2.13961 13.0197 0.211178 17.2632 0.258296 20.7511C0.258296 20.7511 0.207229 21.4063 1.32479 22.5317C1.32479 22.5317 0.268453 23.5563 0.390338 24.8828C0.390338 24.8828 0.593479 26.9722 1.44695 29.2232C2.30015 31.4733 3.09268 32.8202 3.5599 33.4835C4.02713 34.1467 5.65254 35.2115 6.4857 35.4928C6.4857 35.4733 5.89659 36.7192 6.68912 37.7234C6.68912 37.7234 12.2154 43.7318 22.0088 43.8926H22.0472C31.8403 43.7318 37.3668 37.7234 37.3668 37.7234C38.1594 36.7189 37.5703 35.4733 37.5703 35.4928C38.4034 35.2115 40.0285 34.1467 40.4958 33.4835C40.9636 32.8202 41.7555 31.4736 42.609 29.2232C43.4619 26.9725 43.6653 24.8828 43.6653 24.8828C43.7872 23.5563 42.7309 22.5317 42.7309 22.5317C43.8484 21.4063 43.7977 20.7511 43.7977 20.7511ZM3.58163 11.6725C4.22491 10.9174 5.51119 10.3021 5.51119 10.3021C5.51119 10.3021 7.015 12.4619 13.6413 13.566C18.7639 14.3568 22.0065 14.2521 22.0065 14.2521H22.0237C22.0237 14.2521 25.2664 14.3568 30.3889 13.566C37.0153 12.4619 38.5191 10.3021 38.5191 10.3021C38.5191 10.3021 39.8059 10.9174 40.4489 11.6725C41.0919 12.4275 41.4082 13.5174 41.4082 13.5174C41.4082 13.5174 40.5282 16.2403 33.9487 17.5657C27.3695 18.8911 22.0356 18.7979 22.0356 18.7979H21.9947C21.9947 18.7979 16.6608 18.8911 10.0813 17.5657C3.50178 16.2403 2.62207 13.5174 2.62207 13.5174C2.62207 13.5174 2.93835 12.4275 3.58163 11.6725ZM36.91 37.2613C36.3065 38.0075 35.1247 38.9274 34.735 39.1264C34.3454 39.3253 32.1833 40.3198 27.8079 40.8299C24.4761 41.2775 22.017 41.153 22.017 41.153C22.017 41.153 19.5528 41.2772 16.221 40.8299C11.8458 40.3198 9.68348 39.3251 9.29356 39.1264C8.90365 38.9277 7.72204 38.0075 7.11854 37.2613C6.51504 36.5152 7.10613 35.7445 7.10613 35.7445C7.10613 35.7445 9.89706 36.9379 14.461 37.5097C19.0249 38.082 22.0046 37.9701 22.0046 37.9701H22.0249C22.0249 37.9701 25.0046 38.0817 29.5682 37.5097C34.1318 36.9379 36.923 35.7445 36.923 35.7445C36.923 35.7445 37.5138 36.5152 36.91 37.2613ZM43.0252 24.2823C43.1061 24.9897 42.7865 26.1379 42.7865 26.1379C42.7865 26.1379 42.7309 26.4688 42.4372 26.7096C42.1435 26.9504 39.0712 29.6166 30.7755 30.5757C30.7755 30.5757 26.6542 31.1686 22.0221 31.1337H21.9868C17.3549 31.1686 13.2334 30.5757 13.2334 30.5757C4.93788 29.6163 1.86565 26.9504 1.57166 26.7096C1.27767 26.4688 1.22209 26.1379 1.22209 26.1379C1.22209 26.1379 0.902987 24.9897 0.984243 24.2823C1.06522 23.5755 1.80979 22.9284 1.80979 22.9284C1.80979 22.9284 3.19425 24.0708 6.8048 25.1869C10.4154 26.3031 17.1436 27.1926 21.9868 27.0877H22.0221C26.8656 27.1924 33.5935 26.3031 37.2043 25.1869C40.8149 24.0708 42.1991 22.9284 42.1991 22.9284C42.1991 22.9284 42.9442 23.5755 43.0252 24.2823Z" fill="#02AA4E"/>
</svg>
