<svg width="40" height="40" viewBox="0 0 40 40" fill="none" xmlns="http://www.w3.org/2000/svg">
<path d="M26.9125 7.65625V37.9688H2.03125V2.03125H21.2875L26.9125 7.65625Z" fill="#F5F6FA"/>
<path d="M9.84375 4.45312H7.96875C7.82371 4.45312 7.68461 4.39551 7.58205 4.29295C7.47949 4.19039 7.42188 4.05129 7.42188 3.90625C7.42188 3.76121 7.47949 3.62211 7.58205 3.51955C7.68461 3.41699 7.82371 3.35938 7.96875 3.35938H9.84375C9.98879 3.35938 10.1279 3.41699 10.2304 3.51955C10.333 3.62211 10.3906 3.76121 10.3906 3.90625C10.3906 4.05129 10.333 4.19039 10.2304 4.29295C10.1279 4.39551 9.98879 4.45312 9.84375 4.45312Z" fill="#D1D5DA"/>
<path d="M26.9126 7.65625H21.2876V2.03125L26.9126 7.65625Z" fill="#D1D5DA"/>
<path d="M23.925 12.7869H5.0188C4.87376 12.7869 4.73466 12.7292 4.6321 12.6267C4.52954 12.5241 4.47192 12.385 4.47192 12.24C4.47192 12.0949 4.52954 11.9559 4.6321 11.8533C4.73466 11.7507 4.87376 11.6931 5.0188 11.6931H23.925C24.0701 11.6931 24.2092 11.7507 24.3117 11.8533C24.4143 11.9559 24.4719 12.0949 24.4719 12.24C24.4719 12.385 24.4143 12.5241 24.3117 12.6267C24.2092 12.7292 24.0701 12.7869 23.925 12.7869Z" fill="#D1D5DA"/>
<path d="M23.925 15.2875H5.0188C4.87376 15.2875 4.73466 15.2299 4.6321 15.1273C4.52954 15.0247 4.47192 14.8856 4.47192 14.7406C4.47192 14.5956 4.52954 14.4565 4.6321 14.3539C4.73466 14.2513 4.87376 14.1937 5.0188 14.1937H23.925C24.0701 14.1937 24.2092 14.2513 24.3117 14.3539C24.4143 14.4565 24.4719 14.5956 24.4719 14.7406C24.4719 14.8856 24.4143 15.0247 24.3117 15.1273C24.2092 15.2299 24.0701 15.2875 23.925 15.2875Z" fill="#D1D5DA"/>
<path d="M22.0532 17.7875H5.0188C4.87376 17.7875 4.73466 17.7299 4.6321 17.6273C4.52954 17.5247 4.47192 17.3856 4.47192 17.2406C4.47192 17.0956 4.52954 16.9565 4.6321 16.8539C4.73466 16.7513 4.87376 16.6937 5.0188 16.6937H22.0532C22.1982 16.6937 22.3373 16.7513 22.4399 16.8539C22.5424 16.9565 22.6 17.0956 22.6 17.2406C22.6 17.3856 22.5424 17.5247 22.4399 17.6273C22.3373 17.7299 22.1982 17.7875 22.0532 17.7875Z" fill="#D1D5DA"/>
<path d="M21.0719 20.2875H5.0188C4.87376 20.2875 4.73466 20.2299 4.6321 20.1273C4.52954 20.0247 4.47192 19.8856 4.47192 19.7406C4.47192 19.5956 4.52954 19.4565 4.6321 19.3539C4.73466 19.2513 4.87376 19.1937 5.0188 19.1937H21.0719C21.217 19.1937 21.3561 19.2513 21.4586 19.3539C21.5612 19.4565 21.6188 19.5956 21.6188 19.7406C21.6188 19.8856 21.5612 20.0247 21.4586 20.1273C21.3561 20.2299 21.217 20.2875 21.0719 20.2875Z" fill="#D1D5DA"/>
<path d="M21.0219 22.7906H5.0188C4.87376 22.7906 4.73466 22.733 4.6321 22.6305C4.52954 22.5279 4.47192 22.3888 4.47192 22.2438C4.47192 22.0987 4.52954 21.9596 4.6321 21.8571C4.73466 21.7545 4.87376 21.6969 5.0188 21.6969H21.0219C21.167 21.6969 21.3061 21.7545 21.4086 21.8571C21.5112 21.9596 21.5688 22.0987 21.5688 22.2438C21.5688 22.3888 21.5112 22.5279 21.4086 22.6305C21.3061 22.733 21.167 22.7906 21.0219 22.7906Z" fill="#D1D5DA"/>
<path d="M21.8938 25.2906H5.0188C4.87376 25.2906 4.73466 25.233 4.6321 25.1305C4.52954 25.0279 4.47192 24.8888 4.47192 24.7438C4.47192 24.5987 4.52954 24.4596 4.6321 24.3571C4.73466 24.2545 4.87376 24.1969 5.0188 24.1969H21.8938C22.0388 24.1969 22.1779 24.2545 22.2805 24.3571C22.3831 24.4596 22.4407 24.5987 22.4407 24.7438C22.4407 24.8888 22.3831 25.0279 22.2805 25.1305C22.1779 25.233 22.0388 25.2906 21.8938 25.2906Z" fill="#D1D5DA"/>
<path d="M23.925 27.7909H5.0188C4.87376 27.7909 4.73466 27.7333 4.6321 27.6307C4.52954 27.5282 4.47192 27.3891 4.47192 27.244C4.47192 27.099 4.52954 26.9599 4.6321 26.8573C4.73466 26.7548 4.87376 26.6971 5.0188 26.6971H23.925C24.0701 26.6971 24.2092 26.7548 24.3117 26.8573C24.4143 26.9599 24.4719 27.099 24.4719 27.244C24.4719 27.3891 24.4143 27.5282 24.3117 27.6307C24.2092 27.7333 24.0701 27.7909 23.925 27.7909Z" fill="#D1D5DA"/>
<path d="M23.925 30.2915H5.0188C4.87376 30.2915 4.73466 30.2339 4.6321 30.1313C4.52954 30.0288 4.47192 29.8897 4.47192 29.7446C4.47192 29.5996 4.52954 29.4605 4.6321 29.3579C4.73466 29.2554 4.87376 29.1978 5.0188 29.1978H23.925C24.0701 29.1978 24.2092 29.2554 24.3117 29.3579C24.4143 29.4605 24.4719 29.5996 24.4719 29.7446C24.4719 29.8897 24.4143 30.0288 24.3117 30.1313C24.2092 30.2339 24.0701 30.2915 23.925 30.2915Z" fill="#D1D5DA"/>
<path d="M23.925 32.7922H5.0188C4.87376 32.7922 4.73466 32.7346 4.6321 32.6321C4.52954 32.5295 4.47192 32.3904 4.47192 32.2454C4.47192 32.1003 4.52954 31.9612 4.6321 31.8587C4.73466 31.7561 4.87376 31.6985 5.0188 31.6985H23.925C24.0701 31.6985 24.2092 31.7561 24.3117 31.8587C24.4143 31.9612 24.4719 32.1003 24.4719 32.2454C24.4719 32.3904 24.4143 32.5295 24.3117 32.6321C24.2092 32.7346 24.0701 32.7922 23.925 32.7922Z" fill="#D1D5DA"/>
<path d="M23.925 35.2869H5.0188C4.87376 35.2869 4.73466 35.2292 4.6321 35.1267C4.52954 35.0241 4.47192 34.885 4.47192 34.74C4.47192 34.5949 4.52954 34.4559 4.6321 34.3533C4.73466 34.2507 4.87376 34.1931 5.0188 34.1931H23.925C24.0701 34.1931 24.2092 34.2507 24.3117 34.3533C24.4143 34.4559 24.4719 34.5949 24.4719 34.74C24.4719 34.885 24.4143 35.0241 24.3117 35.1267C24.2092 35.2292 24.0701 35.2869 23.925 35.2869Z" fill="#D1D5DA"/>
<path d="M32.8915 34.2957L33.47 32.5151L31.6893 31.9369L32.2675 30.1563L30.484 29.5772L27.4622 23.6488L29.1328 22.7972L30.8031 21.9457L37.9687 36.0029L36.8662 37.9688L34.6278 37.706L34.0931 36.6569L34.6722 34.8738L32.8915 34.2957Z" fill="#313647"/>
<path d="M28.2805 26.5944C31.3008 26.5944 33.7493 24.1459 33.7493 21.1256C33.7493 18.1053 31.3008 15.6569 28.2805 15.6569C25.2602 15.6569 22.8118 18.1053 22.8118 21.1256C22.8118 24.1459 25.2602 26.5944 28.2805 26.5944Z" fill="#009A44"/>
<path d="M27.4528 20.9075C28.2293 20.9075 28.8587 20.278 28.8587 19.5015C28.8587 18.725 28.2293 18.0956 27.4528 18.0956C26.6763 18.0956 26.0469 18.725 26.0469 19.5015C26.0469 20.278 26.6763 20.9075 27.4528 20.9075Z" fill="#313647"/>
</svg>
